<?xml version="1.0" standalone="no"?>
<!DOCTYPE svg PUBLIC "-//W3C//DTD SVG 20010904//EN"
 "http://www.w3.org/TR/2001/REC-SVG-20010904/DTD/svg10.dtd">
<svg version="1.0" xmlns="http://www.w3.org/2000/svg"
 width="700.000000pt" height="700.000000pt" viewBox="0 0 700.000000 700.000000"
 preserveAspectRatio="xMidYMid meet">
<metadata>
Created by potrace 1.11, written by Peter Selinger 2001-2013
</metadata>
<g transform="translate(0.000000,700.000000) scale(0.100000,-0.100000)"
fill="#000000" stroke="none">
<path d="M3211 6898 c-198 -32 -379 -103 -546 -213 -80 -53 -100 -70 -186
-152 l-46 -44 -120 0 c-281 -1 -541 -103 -788 -310 -115 -97 -169 -151 -290
-293 -185 -216 -314 -531 -340 -826 -8 -98 -10 -103 -44 -123 -46 -27 -174
-155 -234 -235 -93 -122 -179 -318 -208 -474 -17 -98 -19 -282 -2 -383 45
-283 190 -529 417 -711 44 -35 103 -76 133 -91 51 -27 53 -30 53 -69 0 -23 7
-81 15 -130 96 -565 668 -918 1210 -747 144 45 263 113 362 206 l52 49 53 -35
c96 -63 229 -117 310 -126 3 -1 -6 -27 -22 -58 -15 -32 -42 -89 -60 -128 -18
-38 -51 -108 -73 -155 -92 -197 -97 -210 -88 -233 17 -44 28 -46 254 -49 l217
-3 -36 -70 c-58 -114 -183 -353 -234 -450 -26 -49 -87 -166 -136 -260 -48 -93
-111 -215 -140 -270 -185 -352 -189 -360 -175 -392 9 -22 21 -33 43 -37 38 -7
37 -8 150 97 53 48 105 96 117 106 12 10 67 62 124 114 56 52 116 108 132 122
17 15 75 69 130 120 55 50 122 111 149 136 27 24 61 55 75 69 34 32 229 212
300 276 30 27 66 60 81 74 49 45 232 214 370 340 74 68 140 129 146 135 6 5
53 48 104 95 51 47 105 96 120 110 15 14 71 66 125 115 179 163 205 191 205
217 0 13 -6 33 -14 44 -14 18 -31 19 -321 22 -168 2 -305 6 -303 11 2 4 74
104 160 222 l157 214 83 28 c284 98 536 286 711 530 l59 82 92 1 c82 1 129 5
226 19 85 13 241 73 338 129 271 160 477 462 519 765 15 107 8 353 -12 451 -3
14 -10 46 -15 71 -31 159 -157 439 -252 564 -221 290 -461 469 -776 579 -100
35 -286 76 -342 76 -27 0 -60 33 -47 47 13 12 -44 169 -77 211 -31 41 -116
122 -156 148 -53 36 -147 83 -178 89 -12 2 -26 6 -31 9 -7 5 -126 19 -156 19
-16 0 -109 -13 -125 -18 -8 -2 -42 20 -75 50 -109 100 -245 186 -380 240 -76
30 -216 71 -274 80 -20 3 -48 8 -61 11 -65 15 -319 10 -429 -8z"/>
</g>
</svg>
