<svg width="600" height="600" viewBox="0 0 600 600" fill="none" xmlns="http://www.w3.org/2000/svg">
<g clip-path="url(#clip0)">
<path d="M172.531 152.072C154.581 173.22 148.226 190.063 150.637 210.202C152.677 226.322 159.213 241.542 169.497 254.121C169.892 254.62 170.139 255.22 170.209 255.852C170.28 256.484 170.171 257.124 169.896 257.697C169.621 258.271 169.19 258.756 168.653 259.096C168.115 259.437 167.493 259.619 166.857 259.623C166.767 259.634 166.676 259.634 166.586 259.623H166.094C128.169 259.623 100.256 291.956 92.294 323.887C92.1639 324.406 91.9125 324.887 91.5604 325.291C91.2083 325.694 90.7656 326.008 90.2686 326.207C89.8665 326.367 89.4383 326.45 89.0058 326.453C88.3758 326.452 87.7589 326.273 87.2264 325.937C76.3062 319.181 67.0955 309.993 60.3136 299.089C53.5317 288.186 49.3623 275.862 48.131 263.08C46.8997 250.299 48.6398 237.406 53.2154 225.408C57.7911 213.41 65.0784 202.632 74.5082 193.917C75.1338 193.339 75.953 193.018 76.8042 193.015C77.204 193.015 77.6007 193.084 77.9768 193.22C78.5643 193.438 79.0799 193.815 79.4663 194.309C79.8527 194.802 80.095 195.393 80.1662 196.016C82.1506 213.695 85.0862 227.135 94.4178 243.527C94.8967 244.343 95.5808 245.02 96.4021 245.49C97.2235 245.961 98.1535 246.208 99.1 246.208C100.09 246.202 101.059 245.918 101.896 245.388C101.952 245.355 102.004 245.317 102.052 245.273C103.209 244.514 104.032 243.343 104.355 241.997C104.678 240.652 104.476 239.234 103.79 238.033C93.237 219.501 90.7606 203.781 90.1702 184.478C89.7168 169.992 91.7583 155.535 96.2054 141.74C104.405 116.394 120.354 95.9266 136.836 89.588C140.669 88.0678 144.751 87.2726 148.874 87.2428C159.222 87.2428 168.915 92.5646 175.499 101.855C183.847 113.557 188.086 133.737 172.531 152.072Z" fill="#00BBF0"/>
<path d="M552.297 218.426C552.32 239.258 544.091 259.25 529.411 274.031C522.237 281.419 513.654 287.294 504.169 291.306C494.684 295.319 484.491 297.389 474.192 297.392H473.586C467.162 297.357 460.768 296.517 454.553 294.891C449.501 293.581 444.592 291.768 439.9 289.479C428.355 283.887 425.066 271.079 427.813 261.862C431.151 250.833 441.753 244.502 456.923 244.502C459.738 244.516 462.548 244.714 465.337 245.093C468.279 245.507 471.246 245.717 474.217 245.724C496.923 245.724 505.082 231.784 507.542 225.815C513.38 211.793 510.272 191.883 500.162 178.509C499.688 177.872 499.069 177.357 498.355 177.007C497.642 176.658 496.856 176.484 496.062 176.5C495.217 176.495 494.383 176.688 493.627 177.064C492.871 177.44 492.213 177.988 491.708 178.665C491.659 178.712 491.615 178.764 491.577 178.82C490.906 179.724 490.543 180.819 490.543 181.945C490.543 183.07 490.906 184.165 491.577 185.069C498.342 194.13 502.581 209.603 497.571 221.665C495.045 227.733 488.977 234.949 474.299 234.949C471.786 234.937 469.277 234.756 466.788 234.408C463.44 233.942 460.065 233.701 456.686 233.687C427.28 233.687 419.236 252.85 417.473 258.738C415.188 266.485 415.712 274.79 418.953 282.189C422.193 289.588 427.942 295.605 435.185 299.18C439.135 301.097 443.218 302.725 447.403 304.051C447.915 304.203 448.381 304.477 448.763 304.85C449.144 305.223 449.429 305.683 449.593 306.191C449.759 306.693 449.807 307.226 449.733 307.75C449.659 308.273 449.465 308.773 449.166 309.209C448.346 310.422 447.428 311.669 446.526 312.817C446.526 312.817 446.504 312.838 446.46 312.882C445.714 313.874 444.951 314.867 444.115 315.834C443.894 316.157 443.644 316.458 443.369 316.736C442.787 317.458 442.172 318.179 441.499 318.901C441.186 319.313 440.846 319.705 440.482 320.074C439.58 321.09 438.654 322.058 437.711 323.026C436.948 323.846 436.153 324.608 435.341 325.371C434.775 325.937 434.218 326.478 433.627 327.011C430.801 329.628 427.837 332.092 424.747 334.391C424.091 334.888 423.437 335.361 422.787 335.809C422.516 336.014 422.27 336.195 421.967 336.375C421.147 336.957 420.327 337.548 419.466 338.114C419.455 338.109 419.444 338.107 419.433 338.107C419.422 338.107 419.41 338.109 419.4 338.114C418.457 338.745 417.506 339.352 416.538 339.959C415.571 340.565 414.554 341.156 413.562 341.738C412.742 342.189 411.922 342.64 411.176 343.066C410.815 343.271 410.429 343.452 410.069 343.649C409.188 344.124 408.308 344.575 407.428 345.002C406.305 345.567 405.173 346.109 404.025 346.642C403.73 346.781 403.443 346.912 403.148 347.027C402.131 347.503 401.098 347.929 400.056 348.355C398.794 348.872 397.531 349.372 396.268 349.823C395.005 350.274 393.718 350.725 392.439 351.152C390.93 351.644 389.437 352.095 387.904 352.505C386.846 352.8 385.788 353.07 384.722 353.325C384.321 353.439 383.902 353.53 383.509 353.62C382.295 353.915 381.049 354.161 379.835 354.44C378.622 354.719 377.269 354.932 375.981 355.137C375.849 355.164 375.714 355.181 375.579 355.186C374.292 355.416 373.013 355.571 371.75 355.727C367.432 356.254 363.087 356.528 358.737 356.547C350.456 356.536 342.204 355.59 334.137 353.726C329.741 352.711 325.412 351.43 321.172 349.889C318.311 348.856 315.49 347.683 312.743 346.42C311.349 345.789 309.971 345.108 308.643 344.411C307.823 344.026 307.068 343.591 306.298 343.198L305.937 342.993C304.428 342.173 302.96 341.353 301.517 340.442C299.352 339.114 297.212 337.712 295.137 336.252C293.965 335.432 292.817 334.612 291.685 333.702C290.939 333.136 290.217 332.579 289.52 331.988C288.823 331.398 288.053 330.816 287.356 330.209C286.273 329.282 285.191 328.339 284.158 327.372C283.184 326.486 281.915 325.994 280.599 325.994C279.256 325.987 277.959 326.484 276.966 327.388L276.876 327.478C276.332 327.986 275.9 328.601 275.605 329.284C275.31 329.967 275.159 330.703 275.162 331.447C275.158 332.186 275.31 332.918 275.61 333.594C275.91 334.269 276.35 334.874 276.901 335.367C277.893 336.293 278.91 337.195 279.918 338.048L280.123 338.253C281.14 339.073 282.173 339.967 283.215 340.803C284.412 341.746 285.601 342.673 286.798 343.55C287.815 344.321 288.848 345.034 289.889 345.756C292.992 347.928 296.205 349.937 299.516 351.775C300.82 352.521 302.157 353.243 303.51 353.915C304.863 354.587 306.191 355.293 307.569 355.924C308.766 356.471 309.982 357.017 311.218 357.564L312.325 358.04C313.522 358.532 314.735 359.007 315.957 359.483C316.782 359.792 317.453 360.41 317.828 361.207C318.203 362.003 318.253 362.914 317.966 363.747C315.278 371.494 310.796 378.497 304.886 384.183C298.976 389.869 291.806 394.077 283.961 396.465C281.959 397.087 279.918 397.577 277.852 397.933C277.106 398.072 276.368 398.179 275.621 398.293C274.875 398.408 274.137 398.474 273.391 398.539C272.874 398.589 272.358 398.63 271.833 398.654C271.472 398.654 271.136 398.703 270.775 398.703C270.119 398.703 269.488 398.753 268.84 398.753C267.982 398.753 267.148 398.731 266.339 398.687L265.076 398.621C264.174 398.556 263.321 398.482 262.485 398.375C252.622 397.169 243.316 393.146 235.679 386.789L235.433 386.559C234.871 385.997 234.525 385.256 234.454 384.464C234.384 383.673 234.594 382.882 235.048 382.23L235.204 382C236.735 379.349 238.109 376.611 239.32 373.8C241.46 368.388 241.46 367.535 241.46 360.967V360.787C241.475 356.781 240.99 352.79 240.017 348.905C234.277 325.502 216.975 310.98 194.851 310.98C171.965 310.98 154.762 326.806 151.022 351.291C150.909 352.039 150.959 352.804 151.169 353.531C151.378 354.258 151.742 354.932 152.236 355.506C152.752 356.1 153.389 356.577 154.105 356.904C154.821 357.231 155.598 357.4 156.385 357.4C157.674 357.404 158.921 356.947 159.903 356.113C160.874 355.319 161.516 354.195 161.707 352.956C164.503 333.743 177.197 321.796 194.851 321.796C215.597 321.796 230.661 338.196 230.661 360.778C230.661 361.82 230.661 362.533 230.702 363.099C230.792 365.559 230.702 366.141 229.398 369.454C229.218 369.88 229.062 370.274 228.857 370.807C228.041 372.687 227.099 374.509 226.036 376.26C223.653 380.378 220.832 384.227 217.623 387.74C211.157 394.911 203.23 400.615 194.376 404.468C184.668 408.635 174.114 410.452 163.571 409.771C153.029 409.09 142.796 405.931 133.704 400.55C124.613 395.17 116.919 387.719 111.25 378.805C105.58 369.891 102.095 359.764 101.076 349.249C100.853 347.108 100.741 344.957 100.74 342.804C100.742 338.558 101.149 334.321 101.954 330.151C107.497 301.197 131.851 270.423 166.102 270.423C176.727 270.429 187.199 272.958 196.655 277.803C198.217 278.58 199.736 279.44 201.206 280.377C201.206 280.377 201.247 280.377 201.272 280.427C203.682 281.789 206.304 282.735 209.029 283.223C210.333 283.518 211.957 283.854 214.171 284.486C222.8 287 231.742 288.275 240.73 288.274C245.796 288.262 250.853 287.87 255.859 287.101C266.864 285.388 274.031 281.755 283.739 276.441C284.239 276.158 284.805 276.011 285.379 276.015C286.148 276.022 286.892 276.284 287.495 276.761C306.413 291.961 329.513 301.036 353.718 302.78C353.846 302.792 353.975 302.792 354.104 302.78C354.814 302.777 355.517 302.633 356.173 302.358C356.828 302.083 357.423 301.682 357.923 301.177C358.423 300.672 358.819 300.074 359.088 299.416C359.357 298.758 359.494 298.054 359.491 297.343C359.499 295.993 358.997 294.69 358.084 293.695C357.172 292.701 355.917 292.088 354.571 291.98C334.434 290.503 315.096 283.488 298.696 271.71C298.282 271.401 297.942 271.004 297.701 270.547C297.46 270.09 297.324 269.586 297.302 269.07C297.289 268.55 297.393 268.035 297.608 267.562C297.822 267.089 298.141 266.671 298.54 266.339C302.394 263.161 305.991 259.684 309.299 255.941C309.789 255.386 310.159 254.735 310.383 254.029C310.608 253.323 310.683 252.578 310.603 251.841C310.522 251.092 310.285 250.368 309.908 249.716C309.531 249.063 309.022 248.497 308.413 248.053C308.365 248.031 308.32 248 308.282 247.963C307.391 247.336 306.329 246.998 305.24 246.995C304.463 246.999 303.696 247.167 302.989 247.49C302.282 247.812 301.652 248.281 301.14 248.865C297.499 252.954 293.474 256.683 289.119 260C284.143 263.816 278.751 267.057 273.047 269.66C272.013 270.152 271.021 270.603 270.095 271.054C265.019 273.44 261.009 275.318 254.178 276.376C247.988 277.45 241.723 278.037 235.441 278.131C225.222 278.228 215.15 275.686 206.2 270.751C204.823 270.054 203.543 269.283 202.461 268.651C200.116 267.233 197.885 265.765 195.852 264.281C176.18 249.923 163.88 230.3 161.346 208.931C159.026 189.161 167.086 175.196 180.78 159.075C199.091 137.501 195.778 111.638 184.364 95.5822C177.107 85.3896 166.824 78.764 155.409 76.9354C154.724 76.8241 154.089 76.5049 153.592 76.021C153.094 75.537 152.757 74.9117 152.626 74.2298C152.495 73.5479 152.577 72.8423 152.861 72.2086C153.145 71.5749 153.616 71.0437 154.212 70.687C166.635 63.307 179.419 59.0102 192.203 57.9688C193.4 57.8786 194.573 57.813 195.762 57.7638C196.582 57.7638 197.402 57.7146 198.172 57.7146C204.208 57.708 210.219 58.4797 216.057 60.0106L216.262 60.0598C225.923 62.6098 234.867 67.3549 242.395 73.926C255.769 85.6274 254.055 103.331 252.383 120.51C250.915 135.598 249.406 151.195 259.057 161.797C260.101 162.951 261.239 164.015 262.46 164.979C262.916 165.339 263.271 165.811 263.492 166.347C263.713 166.884 263.793 167.469 263.723 168.046C263.662 168.624 263.448 169.175 263.104 169.643C262.759 170.112 262.297 170.48 261.763 170.711C243.27 179.171 228.354 193.884 219.64 212.26C219.304 212.961 219.12 213.726 219.101 214.503C219.081 215.28 219.226 216.053 219.525 216.77C219.809 217.467 220.24 218.094 220.789 218.608C221.338 219.122 221.993 219.51 222.707 219.747L222.863 219.812C223.394 219.976 223.947 220.059 224.503 220.058C225.537 220.049 226.548 219.748 227.418 219.19C228.289 218.631 228.984 217.838 229.423 216.901C236.437 202.025 248.121 189.848 262.695 182.226C277.268 174.603 293.934 171.953 310.154 174.677C326.374 177.401 341.259 185.352 352.543 197.317C363.827 209.283 370.891 224.608 372.66 240.96C372.802 242.297 373.433 243.534 374.432 244.433C375.431 245.332 376.728 245.83 378.072 245.831C378.826 245.837 379.573 245.681 380.262 245.374C380.95 245.067 381.566 244.616 382.066 244.051C382.586 243.478 382.977 242.798 383.211 242.059C383.444 241.32 383.515 240.54 383.419 239.771C381.127 218.637 371.098 199.098 355.262 184.916C339.427 170.733 318.904 162.91 297.647 162.953C282.198 162.953 272.227 160.223 267.069 154.589C260.624 147.464 261.796 135.451 263.166 121.535C264.904 103.569 267.085 81.1994 249.48 65.8244C242.87 60.0226 235.282 55.4414 227.069 52.2944C226.527 52.0868 226.048 51.743 225.677 51.2963C225.307 50.8495 225.057 50.3149 224.954 49.7438C224.85 49.1727 224.895 48.5846 225.084 48.036C225.274 47.4874 225.602 46.9969 226.036 46.6118C242.387 32.1142 264.207 23.1844 287.536 21.4952C290.176 21.3148 292.833 21.2246 295.449 21.2246C321.492 21.2246 346.568 30.6464 364.222 47.112C364.582 47.4485 364.865 47.8586 365.051 48.3142C365.238 48.7698 365.325 49.2604 365.305 49.7524C365.284 50.2393 365.156 50.7156 364.931 51.1478C364.705 51.5799 364.388 51.9573 364.001 52.2534C362.648 53.3081 361.353 54.436 360.122 55.6318C350.282 65.0372 344.428 78.723 344.182 93.196C344.171 93.8185 343.988 94.4259 343.654 94.9512C343.32 95.4765 342.847 95.8991 342.287 96.1726C341.824 96.3947 341.317 96.5096 340.803 96.5088C340.078 96.513 339.371 96.2766 338.794 95.8364C329.597 88.9869 319.218 83.889 308.175 80.7976C307.725 80.6819 307.263 80.6213 306.798 80.6172C305.562 80.6357 304.37 81.0784 303.422 81.8711C302.474 82.6639 301.828 83.7585 301.591 84.9714C301.591 85.037 301.591 85.1026 301.591 85.1764C301.363 86.488 301.632 87.8373 302.344 88.9618C303.057 90.0864 304.162 90.9058 305.445 91.2608C323.977 96.4678 340.147 108.038 352.185 124.741L352.25 124.881L352.923 125.807C353.128 126.127 353.333 126.414 353.554 126.734C353.627 126.824 353.688 126.923 353.735 127.029C355.58 129.711 357.343 132.597 359.007 135.623C359.47 136.481 360.156 137.199 360.993 137.698C361.831 138.198 362.788 138.461 363.763 138.46C364.519 138.461 365.266 138.299 365.953 137.984L366.158 137.919C366.796 137.602 367.366 137.162 367.834 136.624C368.303 136.087 368.661 135.462 368.888 134.786C369.133 134.088 369.227 133.345 369.165 132.608C369.103 131.87 368.885 131.154 368.527 130.506C366.695 127.123 364.686 123.838 362.509 120.666L362.328 120.395C362.199 120.184 362.056 119.982 361.902 119.789C361.722 119.55 361.57 119.292 361.451 119.018C348.692 94.5572 356.76 73.7866 367.584 63.4136C368.806 62.239 370.102 61.1435 371.463 60.1336C376.958 56.1014 383.516 53.7719 390.323 53.4342C390.774 53.4342 391.225 53.4342 391.676 53.4342C398.646 53.4342 405.542 55.5744 412.176 59.7892C435.603 74.7624 428.297 94.672 419.818 117.755C413.75 134.212 406.879 152.884 413.258 169.932C419.818 187.316 435.669 190.784 442.951 191.44L442.795 184.88C442.792 183.73 442.414 182.613 441.718 181.697C441.023 180.781 440.048 180.116 438.941 179.804C433.644 178.337 426.641 174.802 423.361 166.143C418.441 152.794 424.033 137.599 429.97 121.502L430.126 121.051C432.586 114.286 435.152 107.316 436.825 100.215C436.996 99.4726 437.413 98.8097 438.008 98.3347C438.604 97.8596 439.343 97.6004 440.105 97.5994H440.351C470.797 99.9611 499.235 113.71 519.995 136.105C540.755 158.501 552.312 187.897 552.363 218.435L552.297 218.426Z" fill="#00BBF0"/>
<path d="M292.251 462.483C292.697 461.623 292.914 460.663 292.881 459.694C292.849 458.726 292.568 457.783 292.066 456.954C291.563 456.126 290.857 455.441 290.013 454.964C289.17 454.488 288.218 454.236 287.249 454.234H251.399L270.792 412.971C271.915 412.922 273.047 412.857 274.154 412.766C287.077 411.693 299.403 406.859 309.612 398.862C319.821 390.865 327.466 380.055 331.603 367.765C340.514 369.767 349.619 370.779 358.753 370.782C360.918 370.782 363.058 370.733 365.198 370.627C368.601 370.446 372.004 370.135 375.366 369.675L347.97 406.92C347.342 407.759 346.961 408.757 346.868 409.802C346.776 410.846 346.977 411.896 347.448 412.832C347.919 413.769 348.641 414.556 349.534 415.105C350.428 415.654 351.456 415.943 352.505 415.94H399.179L240.689 561.531L292.251 462.483Z" fill="#EBCE2B"/>
<path d="M181.518 107.841C174.958 98.5506 165.241 93.2288 154.893 93.2288C150.77 93.2585 146.688 94.0538 142.855 95.574C126.373 101.913 110.432 122.38 102.224 147.726C97.7761 161.54 95.7401 176.017 96.2054 190.522C96.7876 209.825 99.2722 225.536 109.826 244.076C110.512 245.278 110.714 246.695 110.391 248.041C110.068 249.386 109.244 250.557 108.087 251.317C108.039 251.36 107.987 251.399 107.931 251.431C107.095 251.961 106.126 252.245 105.135 252.251C104.177 252.251 103.236 251.996 102.407 251.513C101.579 251.031 100.894 250.338 100.42 249.504C91.105 233.104 88.1202 219.673 86.1686 201.994C86.0974 201.371 85.8552 200.78 85.4687 200.286C85.0823 199.793 84.5668 199.416 83.9792 199.197C83.6031 199.062 83.2064 198.992 82.8066 198.992C81.9553 198.995 81.1358 199.316 80.5106 199.894C71.0808 208.61 63.7935 219.388 59.2179 231.386C54.6422 243.383 52.9021 256.277 54.1334 269.058C55.3647 281.84 59.5341 294.164 66.316 305.067C73.0979 315.971 82.3086 325.159 93.2288 331.914C93.7615 332.251 94.3783 332.43 95.0082 332.431C95.4407 332.428 95.8689 332.344 96.271 332.185C96.7681 331.986 97.2108 331.672 97.5628 331.268C97.9149 330.865 98.1663 330.384 98.2964 329.864C106.275 297.934 134.196 265.601 172.096 265.601H172.588C172.678 265.612 172.769 265.612 172.859 265.601C173.495 265.597 174.118 265.414 174.655 265.074C175.192 264.733 175.623 264.249 175.899 263.675C176.174 263.101 176.282 262.462 176.212 261.83C176.141 261.197 175.894 260.598 175.499 260.099C165.215 247.519 158.679 232.299 156.639 216.18C154.229 196.049 160.584 179.198 178.533 158.05C194.097 139.747 189.858 119.6 181.518 107.841Z" fill="#00E5F9"/>
<path d="M314.867 250.415C314.78 250.398 314.697 250.367 314.621 250.324L314.891 250.439L314.867 250.415ZM525.5 141.666C504.829 119.45 476.533 105.855 446.272 103.602H446.026C445.264 103.603 444.525 103.862 443.929 104.337C443.333 104.812 442.916 105.475 442.746 106.218C441.106 113.319 438.531 120.289 436.046 127.054L435.89 127.505C429.962 143.601 424.345 158.804 429.281 172.146C432.561 180.805 439.539 184.347 444.861 185.807C445.968 186.119 446.943 186.783 447.639 187.699C448.334 188.615 448.712 189.733 448.715 190.883L448.871 197.443C441.589 196.787 425.714 193.343 419.179 175.934C412.824 158.886 419.695 140.215 425.739 123.757C434.218 100.666 441.524 80.7566 418.096 65.7916C411.487 61.5768 404.591 59.4366 397.596 59.4366C397.145 59.4366 396.694 59.4366 396.243 59.4366C389.436 59.7738 382.878 62.1034 377.383 66.136C376.022 67.1459 374.727 68.2414 373.505 69.416C362.681 79.789 354.645 100.576 367.371 125.02C367.49 125.294 367.642 125.553 367.822 125.791C367.977 125.984 368.119 126.187 368.249 126.398L368.429 126.668C370.607 129.84 372.616 133.125 374.448 136.508C374.806 137.156 375.023 137.872 375.085 138.61C375.148 139.348 375.053 140.09 374.809 140.789C374.358 142.121 373.409 143.226 372.16 143.872L371.955 143.938C371.268 144.252 370.521 144.415 369.766 144.413C368.79 144.414 367.833 144.151 366.996 143.651C366.158 143.152 365.472 142.435 365.01 141.576C363.37 138.558 361.582 135.672 359.737 132.982C359.691 132.876 359.63 132.777 359.557 132.687C359.335 132.367 359.13 132.08 358.925 131.761L358.253 130.834L358.187 130.695C346.125 113.991 329.955 102.421 311.447 97.214C310.165 96.8574 309.061 96.0376 308.349 94.9135C307.637 93.7894 307.368 92.441 307.593 91.1296C307.593 91.064 307.593 90.9902 307.593 90.9246C307.83 89.7117 308.477 88.6171 309.425 87.8244C310.373 87.0316 311.564 86.5889 312.8 86.5704C313.265 86.5745 313.728 86.6351 314.178 86.7508C325.22 89.8423 335.6 94.9401 344.797 101.79C345.373 102.23 346.08 102.466 346.806 102.462C347.319 102.463 347.827 102.348 348.29 102.126C348.849 101.852 349.322 101.43 349.656 100.904C349.991 100.379 350.173 99.7717 350.184 99.1492C350.43 84.6762 356.252 70.9904 366.125 61.585C367.355 60.3892 368.65 59.2614 370.003 58.2066C370.39 57.9102 370.707 57.5327 370.932 57.1006C371.158 56.6685 371.286 56.1924 371.307 55.7056C371.327 55.2136 371.241 54.723 371.054 54.2674C370.867 53.8118 370.584 53.4017 370.225 53.0652C352.57 36.6078 327.495 27.1778 301.451 27.1778C298.836 27.1778 296.179 27.268 293.538 27.4484C270.25 29.1376 248.438 38.1084 232.038 52.565C231.604 52.9501 231.276 53.4406 231.087 53.9892C230.897 54.5378 230.852 55.126 230.956 55.697C231.06 56.2681 231.309 56.8028 231.68 57.2495C232.05 57.6963 232.53 58.04 233.072 58.2476C241.284 61.3946 248.872 65.9758 255.482 71.7776C273.096 87.1526 270.906 109.498 269.168 127.488C267.79 141.428 266.618 153.417 273.071 160.543C278.188 166.176 288.2 168.907 303.649 168.907C324.907 168.864 345.429 176.686 361.265 190.869C377.1 205.051 387.129 224.59 389.421 245.724C389.517 246.493 389.446 247.274 389.212 248.012C388.979 248.751 388.588 249.431 388.068 250.005C387.568 250.569 386.953 251.02 386.264 251.327C385.575 251.634 384.829 251.79 384.075 251.784C382.73 251.783 381.434 251.286 380.435 250.386C379.435 249.487 378.804 248.25 378.663 246.913C376.874 230.575 369.798 215.268 358.512 203.32C347.225 191.372 332.346 183.436 316.136 180.721C299.926 178.005 283.272 180.657 268.708 188.274C254.144 195.892 242.466 208.057 235.45 222.92C235.01 223.857 234.316 224.65 233.445 225.208C232.575 225.767 231.564 226.068 230.53 226.077C229.974 226.078 229.421 225.995 228.89 225.831L228.734 225.765C228.019 225.529 227.365 225.141 226.816 224.627C226.266 224.113 225.835 223.486 225.552 222.789C225.253 222.071 225.108 221.299 225.128 220.522C225.147 219.744 225.331 218.98 225.667 218.279C234.383 199.923 249.289 185.226 267.766 176.77C268.298 176.54 268.76 176.173 269.104 175.707C269.449 175.24 269.663 174.69 269.726 174.114C269.795 173.537 269.715 172.952 269.494 172.415C269.273 171.879 268.918 171.407 268.463 171.047C267.242 170.083 266.104 169.019 265.06 167.865C255.408 157.271 256.917 141.625 258.385 126.578C260.025 109.358 261.763 91.6954 248.397 79.994C240.869 73.4229 231.926 68.6778 222.264 66.1278L222.059 66.0786C216.221 64.5477 210.21 63.776 204.175 63.7826C203.355 63.7826 202.535 63.7826 201.764 63.8318C200.567 63.881 199.394 63.9466 198.205 64.0368C185.421 65.0782 172.638 69.3586 160.215 76.755C159.619 77.1117 159.147 77.6429 158.863 78.2766C158.58 78.9103 158.498 79.6159 158.628 80.2978C158.759 80.9798 159.096 81.605 159.594 82.089C160.092 82.5729 160.726 82.8921 161.412 83.0034C172.818 84.832 183.101 91.4576 190.366 101.65C201.772 117.706 205.126 143.569 186.783 165.143C173.048 181.264 165.028 195.22 167.349 214.999C169.915 236.319 182.166 255.999 201.846 270.332C203.871 271.817 206.11 273.284 208.455 274.703C209.538 275.334 210.825 276.097 212.194 276.802C221.144 281.737 231.216 284.279 241.436 284.182C247.718 284.089 253.982 283.502 260.173 282.427C267.003 281.37 271.021 279.5 276.089 277.106C277.015 276.655 278.008 276.204 279.041 275.712C284.755 273.105 290.155 269.859 295.137 266.036C299.499 262.719 303.53 258.99 307.175 254.9C307.687 254.316 308.317 253.847 309.024 253.525C309.731 253.202 310.498 253.034 311.275 253.03C312.364 253.033 313.426 253.371 314.317 253.998C314.355 254.035 314.4 254.066 314.448 254.088C315.057 254.532 315.567 255.098 315.944 255.751C316.321 256.403 316.557 257.127 316.638 257.877C316.718 258.613 316.643 259.358 316.419 260.064C316.194 260.77 315.825 261.422 315.334 261.977C312.026 265.719 308.429 269.196 304.576 272.374C304.176 272.706 303.857 273.124 303.643 273.597C303.428 274.07 303.324 274.586 303.337 275.105C303.359 275.621 303.495 276.126 303.736 276.582C303.978 277.039 304.317 277.436 304.731 277.745C321.132 289.523 340.469 296.539 360.606 298.016C361.952 298.123 363.207 298.736 364.119 299.731C365.032 300.725 365.535 302.028 365.526 303.378C365.529 304.089 365.393 304.794 365.124 305.451C364.855 306.109 364.459 306.708 363.958 307.212C363.458 307.717 362.863 308.119 362.208 308.394C361.553 308.669 360.849 308.812 360.139 308.815C360.011 308.827 359.882 308.827 359.753 308.815C335.541 307.07 312.435 297.988 293.514 282.78C292.911 282.303 292.167 282.041 291.398 282.034C290.824 282.03 290.258 282.177 289.758 282.46C280.082 287.757 272.915 291.39 261.878 293.12C256.876 293.877 251.824 294.258 246.766 294.26C237.778 294.261 228.835 292.986 220.206 290.472C218 289.84 216.376 289.504 215.064 289.209C212.339 288.721 209.717 287.775 207.307 286.413C207.307 286.413 207.258 286.363 207.242 286.363C205.771 285.428 204.252 284.572 202.691 283.797V283.797C193.234 278.953 182.762 276.423 172.137 276.417C137.886 276.417 113.54 307.191 107.989 336.146C107.184 340.315 106.777 344.552 106.775 348.798C106.776 350.951 106.888 353.102 107.111 355.243C108.125 365.761 111.607 375.891 117.276 384.808C122.944 393.725 130.638 401.178 139.731 406.559C148.824 411.941 159.059 415.099 169.603 415.778C180.148 416.456 190.703 414.635 200.411 410.462C209.265 406.61 217.192 400.906 223.658 393.734C226.867 390.221 229.688 386.372 232.071 382.254C233.146 380.525 234.102 378.725 234.933 376.867C235.138 376.375 235.294 375.94 235.474 375.514C236.762 372.234 236.868 371.594 236.778 369.159C236.778 368.593 236.737 367.871 236.737 366.838C236.737 344.247 221.674 327.855 200.928 327.855C183.273 327.855 170.588 339.803 167.783 359.015C167.592 360.254 166.95 361.379 165.979 362.172C164.997 363.007 163.75 363.463 162.461 363.46C161.674 363.46 160.897 363.29 160.181 362.964C159.465 362.637 158.828 362.16 158.312 361.566C157.818 360.992 157.454 360.318 157.245 359.591C157.035 358.863 156.985 358.099 157.099 357.351C160.838 332.866 178.041 317.04 200.928 317.04C223.068 317.04 240.361 331.562 246.093 354.965C247.059 358.843 247.538 362.825 247.52 366.822V367.002C247.52 373.562 247.52 374.382 245.38 379.835C244.145 382.648 242.746 385.386 241.19 388.035L241.034 388.257C240.58 388.909 240.37 389.7 240.44 390.491C240.511 391.283 240.857 392.024 241.419 392.586L241.665 392.808C250.978 400.56 262.717 404.797 274.834 404.78C279.957 404.781 285.052 404.012 289.947 402.5C297.792 400.112 304.962 395.904 310.872 390.218C316.782 384.532 321.264 377.53 323.952 369.782C324.239 368.95 324.189 368.038 323.814 367.242C323.439 366.445 322.768 365.827 321.943 365.518C307.502 360.063 294.245 351.881 282.895 341.418C282.344 340.925 281.904 340.321 281.604 339.645C281.304 338.97 281.152 338.238 281.156 337.499C281.153 336.755 281.304 336.018 281.599 335.335C281.894 334.652 282.327 334.038 282.87 333.53L282.96 333.44C283.954 332.536 285.25 332.038 286.593 332.046C287.909 332.047 289.178 332.538 290.152 333.423C310.499 352.142 337.124 362.552 364.772 362.599C369.122 362.58 373.467 362.306 377.785 361.779C384.817 360.944 391.749 359.42 398.482 357.228C421.432 349.732 441.329 334.991 455.185 315.219C455.484 314.783 455.678 314.284 455.752 313.76C455.826 313.237 455.778 312.703 455.611 312.202C455.448 311.694 455.163 311.233 454.782 310.86C454.4 310.487 453.933 310.213 453.422 310.061C449.237 308.736 445.153 307.108 441.204 305.191C433.96 301.614 428.212 295.595 424.973 288.195C421.734 280.794 421.212 272.488 423.5 264.74C425.255 258.852 433.34 239.689 462.713 239.689C466.092 239.703 469.467 239.944 472.815 240.411C475.304 240.758 477.813 240.939 480.326 240.952C495.004 240.952 501.072 233.736 503.598 227.668C508.6 215.606 504.36 200.14 497.604 191.071C496.933 190.168 496.57 189.072 496.57 187.947C496.57 186.822 496.933 185.726 497.604 184.823C497.642 184.766 497.686 184.714 497.735 184.667C498.24 183.991 498.898 183.442 499.654 183.066C500.41 182.69 501.244 182.497 502.089 182.502C502.883 182.486 503.669 182.66 504.382 183.01C505.096 183.359 505.715 183.874 506.189 184.511C516.291 197.885 519.399 217.795 513.569 231.817C511.109 237.811 502.909 251.727 480.244 251.727C477.273 251.72 474.306 251.509 471.364 251.095C468.575 250.719 465.764 250.524 462.95 250.513C447.772 250.513 437.178 256.852 433.84 267.872C431.093 277.097 434.382 289.898 445.927 295.49C450.619 297.778 455.528 299.591 460.581 300.902C466.785 302.525 473.167 303.365 479.58 303.403H480.187C490.485 303.399 500.679 301.33 510.163 297.317C519.648 293.304 528.231 287.43 535.406 280.041C550.088 265.262 558.32 245.27 558.3 224.437C558.33 193.672 546.595 164.06 525.5 141.666V141.666ZM301.427 30.5726H303.067C302.099 30.5726 301.132 30.5726 300.156 30.5726H301.427ZM204.199 67.12H204.962C205.233 67.12 205.503 67.1692 205.782 67.1692C204.962 67.1692 204.208 67.12 203.396 67.12C203.634 67.12 203.929 67.12 204.199 67.12ZM479.842 237.541H480.474C480.425 237.541 480.384 237.541 480.318 237.541H479.842ZM462.934 253.883H463.541H462.303H462.934Z" fill="#00E5F9"/>
<path d="M298.27 468.494C298.715 467.633 298.933 466.673 298.9 465.705C298.868 464.737 298.587 463.793 298.085 462.965C297.582 462.136 296.875 461.451 296.032 460.975C295.188 460.498 294.237 460.247 293.268 460.244H257.409L276.802 418.982C277.926 418.933 279.057 418.867 280.164 418.777C293.085 417.705 305.409 412.875 315.617 404.883C325.826 396.891 333.472 386.086 337.613 373.8C346.531 375.795 355.642 376.798 364.78 376.793C366.945 376.793 369.085 376.744 371.225 376.637C374.628 376.457 378.031 376.145 381.393 375.694L353.997 412.939C353.369 413.778 352.988 414.776 352.895 415.821C352.803 416.865 353.004 417.914 353.475 418.851C353.946 419.788 354.668 420.575 355.561 421.124C356.455 421.672 357.483 421.962 358.532 421.959H405.206L246.7 567.541L298.27 468.494Z" fill="#FAEB2E"/>
<path d="M291.669 333.759C290.923 333.194 290.201 332.636 289.504 332.046C288.807 331.455 288.036 330.873 287.339 330.266C286.257 329.34 285.174 328.397 284.141 327.429C283.168 326.543 281.899 326.052 280.582 326.051C279.24 326.044 277.943 326.542 276.95 327.445L276.86 327.536C276.316 328.044 275.883 328.658 275.589 329.341C275.294 330.024 275.143 330.761 275.146 331.504C275.141 332.244 275.294 332.975 275.594 333.651C275.893 334.327 276.333 334.931 276.884 335.424C277.876 336.351 278.893 337.253 279.902 338.105L280.107 338.31C281.124 339.13 282.157 340.024 283.198 340.861C284.395 341.804 285.584 342.73 286.782 343.608C287.798 344.378 288.832 345.092 289.873 345.813L293.342 338.433C293.743 337.587 294.356 336.858 295.121 336.318C293.948 335.465 292.792 334.637 291.669 333.759ZM566.5 218.426C566.5 147.48 511.56 89.0714 442.057 83.52C441.606 70.6706 435.972 58.1984 419.736 47.8254C406.502 39.3712 391.684 37.231 378.269 41.126C356.129 17.8134 322.083 4.73441 286.478 7.30101C255.318 9.58061 227.315 23.127 208.308 44.201C202.594 43.5016 196.824 43.3889 191.088 43.8648C170.391 45.5048 139.231 55.3448 108.202 92.7286L108.292 92.7942C97.5092 104.02 88.4401 119.551 82.7001 137.345C78.8079 149.385 76.5706 161.898 76.0499 174.54C62.0961 184.077 50.8606 197.076 43.4451 212.264C36.0297 227.452 32.689 244.306 33.7507 261.174C34.8124 278.042 40.24 294.344 49.5012 308.482C58.7624 322.62 71.5393 334.108 86.5787 341.82C86.5787 342.132 86.5787 342.451 86.5787 342.763C86.5693 359.081 91.4728 375.024 100.651 388.516C109.829 402.008 122.857 412.425 138.038 418.409C153.219 424.394 169.85 425.67 185.766 422.07C201.682 418.47 216.146 410.163 227.274 398.228C235.453 404.848 245.092 409.425 255.392 411.577C256.499 411.807 257.598 412.004 258.672 412.16C262.021 412.697 265.407 412.971 268.799 412.98C269.455 412.98 270.127 412.98 270.783 412.98C271.907 412.93 273.038 412.865 274.145 412.775C287.069 411.701 299.395 406.867 309.604 398.871C319.813 390.874 327.457 380.063 331.595 367.773C340.506 369.775 349.611 370.787 358.745 370.791C360.91 370.791 363.05 370.741 365.19 370.635C368.593 370.454 371.996 370.143 375.358 369.684C378.469 369.257 381.557 368.711 384.624 368.044C387.084 367.527 389.495 366.92 391.881 366.24C422.289 357.724 448.357 338.033 464.861 311.111C467.948 311.428 471.049 311.587 474.152 311.587C498.628 311.571 522.098 301.846 539.412 284.545C556.725 267.244 566.467 243.78 566.5 219.304C566.5 218.992 566.5 218.697 566.5 218.426ZM90.2523 326.183C89.8502 326.342 89.422 326.425 88.9895 326.429C88.3594 326.428 87.7425 326.249 87.2101 325.912C76.2899 319.157 67.0791 309.968 60.2972 299.065C53.5154 288.161 49.3459 275.837 48.1146 263.056C46.8833 250.274 48.6234 237.381 53.1991 225.383C57.7747 213.385 65.0621 202.608 74.4919 193.892C75.1174 193.315 75.9366 192.993 76.7878 192.99C77.1876 192.99 77.5844 193.059 77.9605 193.195C78.548 193.414 79.0635 193.79 79.45 194.284C79.8364 194.778 80.0786 195.368 80.1499 195.991C82.1343 213.67 85.0699 227.11 94.4015 243.502C94.8787 244.325 95.564 245.009 96.3887 245.484C97.2134 245.959 98.1484 246.208 99.1001 246.208C100.091 246.202 101.059 245.918 101.896 245.388C101.952 245.355 102.004 245.317 102.052 245.273C103.209 244.514 104.032 243.343 104.355 241.997C104.678 240.652 104.476 239.234 103.79 238.033C93.2371 219.501 90.7607 203.781 90.1703 184.478C89.7168 169.992 91.7583 155.535 96.2055 141.74C104.405 116.394 120.354 95.9266 136.836 89.588C140.669 88.0678 144.751 87.2725 148.874 87.2428C159.222 87.2428 168.915 92.5646 175.499 101.855C183.839 113.581 188.078 133.761 172.523 152.088C154.573 173.236 148.218 190.079 150.629 210.218C152.669 226.338 159.205 241.558 169.489 254.137C169.884 254.636 170.131 255.236 170.201 255.868C170.272 256.501 170.163 257.14 169.888 257.714C169.613 258.287 169.182 258.772 168.644 259.112C168.107 259.453 167.485 259.636 166.848 259.64C166.759 259.651 166.668 259.651 166.578 259.64H166.086C128.161 259.64 100.248 291.972 92.2859 323.903C92.1492 324.416 91.8939 324.889 91.5407 325.285C91.1875 325.681 90.7461 325.989 90.2523 326.183ZM529.411 274.031C522.237 281.419 513.654 287.294 504.169 291.306C494.684 295.319 484.491 297.389 474.193 297.392H473.586C467.162 297.357 460.768 296.517 454.554 294.891C449.501 293.581 444.592 291.768 439.9 289.479C428.355 283.887 425.066 271.079 427.813 261.862C431.151 250.833 441.753 244.502 456.923 244.502C459.738 244.516 462.548 244.714 465.337 245.093C468.279 245.507 471.246 245.717 474.217 245.724C496.923 245.724 505.082 231.784 507.542 225.815C513.38 211.793 510.273 191.883 500.162 178.509C499.688 177.872 499.069 177.357 498.356 177.007C497.642 176.658 496.856 176.484 496.062 176.5C495.217 176.495 494.384 176.688 493.627 177.064C492.871 177.44 492.214 177.988 491.708 178.665C491.659 178.712 491.615 178.764 491.577 178.82C490.906 179.724 490.543 180.819 490.543 181.945C490.543 183.07 490.906 184.165 491.577 185.069C498.342 194.13 502.581 209.603 497.571 221.665C495.045 227.733 488.977 234.949 474.299 234.949C471.786 234.937 469.277 234.756 466.788 234.408C463.441 233.942 460.065 233.701 456.686 233.687C427.28 233.687 419.236 252.85 417.473 258.738C415.188 266.485 415.712 274.79 418.953 282.189C422.193 289.588 427.942 295.605 435.185 299.18C439.135 301.097 443.218 302.725 447.403 304.051C447.915 304.203 448.381 304.477 448.763 304.85C449.145 305.223 449.429 305.683 449.593 306.191C449.759 306.693 449.807 307.226 449.733 307.75C449.659 308.273 449.465 308.773 449.166 309.209C448.346 310.422 447.428 311.669 446.526 312.817C446.526 312.817 446.504 312.838 446.46 312.882C445.714 313.874 444.951 314.867 444.115 315.834C443.894 316.156 443.644 316.458 443.369 316.736C442.787 317.458 442.172 318.179 441.499 318.901C441.186 319.313 440.846 319.705 440.482 320.074C439.58 321.09 438.654 322.058 437.711 323.026C436.948 323.846 436.153 324.608 435.341 325.371C434.775 325.937 434.218 326.478 433.627 327.011C430.802 329.628 427.837 332.092 424.747 334.391C424.091 334.888 423.437 335.361 422.787 335.809C422.516 336.014 422.27 336.195 421.967 336.375C421.147 336.957 420.327 337.548 419.466 338.114C419.456 338.109 419.444 338.107 419.433 338.107C419.422 338.107 419.411 338.109 419.4 338.114C418.457 338.745 417.506 339.352 416.538 339.959C415.571 340.565 414.554 341.156 413.562 341.738C412.742 342.189 411.922 342.64 411.176 343.066C410.815 343.271 410.429 343.452 410.069 343.649C409.188 344.124 408.308 344.575 407.428 345.002C406.305 345.567 405.173 346.109 404.025 346.642C403.73 346.781 403.443 346.912 403.148 347.027C402.131 347.503 401.098 347.929 400.056 348.355C398.794 348.872 397.531 349.372 396.268 349.823C395.005 350.274 393.718 350.725 392.439 351.152C390.93 351.644 389.437 352.095 387.904 352.505C386.846 352.8 385.788 353.07 384.722 353.325C384.321 353.439 383.902 353.53 383.509 353.62C382.295 353.915 381.049 354.161 379.835 354.44C378.622 354.719 377.269 354.932 375.981 355.137C375.849 355.164 375.714 355.181 375.579 355.186C374.292 355.416 373.013 355.571 371.75 355.727C367.432 356.254 363.087 356.528 358.737 356.547C350.457 356.536 342.204 355.59 334.137 353.726C329.741 352.711 325.412 351.43 321.172 349.889C318.311 348.856 315.49 347.683 312.743 346.42C311.349 345.789 309.971 345.108 308.643 344.411C307.823 344.026 307.068 343.591 306.298 343.198L305.937 342.993C304.428 342.173 302.96 341.353 301.517 340.442C299.352 339.114 297.212 337.712 295.137 336.252C293.965 335.432 292.817 334.612 291.685 333.702C290.939 333.136 290.217 332.579 289.52 331.988C288.823 331.398 288.053 330.816 287.356 330.209C286.273 329.282 285.191 328.339 284.158 327.372C283.184 326.486 281.915 325.994 280.599 325.994C279.256 325.987 277.959 326.484 276.966 327.388L276.876 327.478C276.333 327.986 275.9 328.601 275.605 329.284C275.31 329.967 275.159 330.703 275.162 331.447C275.158 332.186 275.31 332.918 275.61 333.594C275.91 334.269 276.35 334.874 276.901 335.367C277.893 336.293 278.91 337.195 279.918 338.048L280.123 338.253C281.14 339.073 282.173 339.967 283.215 340.803C284.412 341.746 285.601 342.673 286.798 343.55C287.815 344.321 288.848 345.034 289.889 345.756C292.992 347.928 296.205 349.937 299.516 351.775C300.82 352.521 302.157 353.243 303.51 353.915C304.863 354.587 306.191 355.293 307.569 355.924C308.766 356.471 309.982 357.017 311.218 357.564L312.325 358.04C313.522 358.532 314.735 359.007 315.957 359.483C316.782 359.792 317.453 360.41 317.828 361.207C318.203 362.003 318.253 362.914 317.966 363.747C315.278 371.494 310.796 378.497 304.886 384.183C298.976 389.869 291.806 394.077 283.961 396.465C281.959 397.087 279.918 397.577 277.852 397.933C277.106 398.072 276.368 398.179 275.621 398.293C274.875 398.408 274.137 398.474 273.391 398.539C272.874 398.589 272.358 398.63 271.833 398.654C271.472 398.654 271.136 398.703 270.775 398.703C270.119 398.703 269.488 398.753 268.84 398.753C267.982 398.753 267.148 398.731 266.339 398.687L265.076 398.621C264.174 398.556 263.321 398.482 262.485 398.375C252.622 397.169 243.316 393.146 235.679 386.789L235.433 386.559C234.871 385.997 234.525 385.256 234.454 384.464C234.384 383.673 234.594 382.882 235.048 382.23L235.204 382C236.735 379.349 238.109 376.611 239.32 373.8C241.46 368.388 241.46 367.535 241.46 360.967V360.787C241.475 356.781 240.99 352.79 240.017 348.905C234.277 325.502 216.975 310.98 194.851 310.98C171.965 310.98 154.762 326.806 151.022 351.291C150.909 352.039 150.959 352.804 151.169 353.531C151.378 354.258 151.742 354.932 152.236 355.506C152.752 356.1 153.389 356.577 154.105 356.904C154.821 357.231 155.598 357.4 156.385 357.4C157.674 357.404 158.921 356.947 159.903 356.113C160.874 355.319 161.516 354.195 161.707 352.956C164.503 333.743 177.197 321.796 194.851 321.796C215.597 321.796 230.661 338.196 230.661 360.778C230.661 361.82 230.661 362.533 230.702 363.099C230.792 365.559 230.702 366.141 229.398 369.454C229.218 369.88 229.062 370.274 228.857 370.807C228.042 372.687 227.099 374.509 226.036 376.26C223.653 380.378 220.832 384.227 217.623 387.74C211.157 394.911 203.23 400.615 194.376 404.468C184.668 408.635 174.114 410.452 163.571 409.771C153.029 409.09 142.796 405.931 133.704 400.55C124.613 395.17 116.919 387.719 111.25 378.805C105.58 369.891 102.095 359.764 101.076 349.249C100.853 347.108 100.741 344.957 100.74 342.804C100.742 338.558 101.149 334.321 101.954 330.151C107.497 301.197 131.851 270.423 166.102 270.423C176.727 270.429 187.199 272.958 196.655 277.803C198.217 278.58 199.736 279.44 201.206 280.377C201.206 280.377 201.247 280.377 201.272 280.427C203.682 281.789 206.304 282.735 209.029 283.223C210.333 283.518 211.957 283.854 214.171 284.486C222.8 287 231.742 288.275 240.73 288.274C245.796 288.262 250.853 287.87 255.859 287.101C266.864 285.388 274.031 281.755 283.739 276.441C284.239 276.158 284.805 276.011 285.379 276.015C286.148 276.022 286.892 276.284 287.495 276.761C306.413 291.961 329.513 301.036 353.718 302.78C353.846 302.792 353.975 302.792 354.104 302.78C354.814 302.777 355.517 302.633 356.173 302.358C356.828 302.083 357.423 301.682 357.923 301.177C358.424 300.672 358.82 300.074 359.088 299.416C359.357 298.758 359.494 298.054 359.491 297.343C359.499 295.993 358.997 294.69 358.084 293.695C357.172 292.701 355.917 292.088 354.571 291.98C334.434 290.503 315.097 283.488 298.696 271.71C298.282 271.401 297.943 271.004 297.701 270.547C297.46 270.09 297.324 269.586 297.302 269.07C297.289 268.55 297.393 268.035 297.608 267.562C297.822 267.089 298.141 266.671 298.54 266.339C302.394 263.161 305.991 259.684 309.299 255.941C309.79 255.386 310.159 254.735 310.384 254.029C310.608 253.323 310.683 252.578 310.603 251.841C310.522 251.092 310.286 250.368 309.909 249.716C309.531 249.063 309.022 248.497 308.413 248.053C308.365 248.031 308.32 248 308.282 247.963C307.391 247.336 306.329 246.998 305.24 246.995C304.463 246.999 303.696 247.167 302.989 247.49C302.282 247.812 301.652 248.281 301.14 248.865C297.5 252.954 293.474 256.683 289.119 260C284.143 263.816 278.751 267.057 273.047 269.66C272.013 270.152 271.021 270.603 270.095 271.054C265.019 273.44 261.009 275.318 254.178 276.376C247.988 277.45 241.723 278.037 235.441 278.131C225.222 278.228 215.15 275.686 206.2 270.751C204.823 270.054 203.543 269.283 202.461 268.651C200.116 267.233 197.885 265.765 195.852 264.281C176.18 249.923 163.88 230.3 161.346 208.931C159.026 189.161 167.086 175.196 180.78 159.075C199.091 137.501 195.778 111.638 184.364 95.5822C177.107 85.3896 166.824 78.764 155.409 76.9354C154.724 76.8242 154.089 76.5049 153.592 76.021C153.094 75.5371 152.757 74.9118 152.626 74.2298C152.495 73.5479 152.577 72.8423 152.861 72.2086C153.145 71.5749 153.617 71.0437 154.212 70.687C166.635 63.307 179.419 59.0102 192.203 57.9688C193.4 57.8786 194.573 57.813 195.762 57.7638C196.582 57.7638 197.402 57.7146 198.172 57.7146C204.208 57.7081 210.219 58.4798 216.057 60.0106L216.262 60.0598C225.924 62.6098 234.867 67.355 242.395 73.926C255.769 85.6274 254.055 103.331 252.383 120.51C250.915 135.598 249.406 151.195 259.057 161.797C260.101 162.951 261.24 164.015 262.46 164.979C262.916 165.339 263.271 165.811 263.492 166.347C263.713 166.884 263.793 167.469 263.723 168.046C263.662 168.624 263.448 169.175 263.104 169.643C262.76 170.112 262.297 170.48 261.763 170.711C243.27 179.171 228.354 193.884 219.64 212.26C219.304 212.961 219.121 213.726 219.101 214.503C219.081 215.28 219.226 216.053 219.525 216.77C219.809 217.467 220.24 218.094 220.789 218.608C221.339 219.122 221.993 219.51 222.707 219.747L222.863 219.812C223.394 219.976 223.947 220.059 224.503 220.058C225.537 220.049 226.548 219.748 227.418 219.19C228.289 218.631 228.984 217.838 229.423 216.901C236.437 202.025 248.121 189.848 262.695 182.226C277.269 174.603 293.934 171.953 310.154 174.677C326.374 177.401 341.259 185.352 352.543 197.317C363.827 209.283 370.891 224.608 372.66 240.96C372.802 242.297 373.433 243.534 374.432 244.433C375.431 245.332 376.728 245.83 378.072 245.831C378.826 245.837 379.573 245.681 380.262 245.374C380.951 245.067 381.566 244.616 382.066 244.051C382.587 243.478 382.977 242.798 383.211 242.059C383.444 241.32 383.515 240.54 383.419 239.771C381.127 218.637 371.098 199.098 355.262 184.916C339.427 170.733 318.905 162.91 297.647 162.953C282.198 162.953 272.227 160.223 267.069 154.589C260.624 147.464 261.796 135.451 263.166 121.535C264.904 103.569 267.085 81.1994 249.48 65.8244C242.87 60.0226 235.282 55.4414 227.069 52.2944C226.527 52.0868 226.048 51.7431 225.677 51.2963C225.307 50.8496 225.057 50.3149 224.954 49.7438C224.85 49.1728 224.895 48.5846 225.084 48.036C225.274 47.4874 225.602 46.9969 226.036 46.6118C242.387 32.1142 264.207 23.1844 287.536 21.4952C290.176 21.3148 292.833 21.2246 295.449 21.2246C321.492 21.2246 346.568 30.6464 364.222 47.112C364.582 47.4485 364.865 47.8586 365.052 48.3142C365.238 48.7698 365.325 49.2604 365.305 49.7524C365.284 50.2393 365.156 50.7156 364.931 51.1478C364.706 51.58 364.388 51.9574 364.001 52.2534C362.648 53.3082 361.353 54.436 360.122 55.6318C350.282 65.0372 344.428 78.723 344.182 93.196C344.171 93.8185 343.988 94.4259 343.654 94.9512C343.32 95.4765 342.847 95.8992 342.287 96.1726C341.824 96.3947 341.317 96.5096 340.803 96.5088C340.078 96.5131 339.371 96.2766 338.794 95.8364C329.597 88.9869 319.218 83.8891 308.175 80.7976C307.725 80.6819 307.263 80.6213 306.798 80.6172C305.562 80.6357 304.37 81.0784 303.422 81.8712C302.474 82.6639 301.828 83.7585 301.591 84.9714C301.591 85.037 301.591 85.1026 301.591 85.1764C301.364 86.488 301.632 87.8373 302.344 88.9619C303.057 90.0864 304.162 90.9058 305.445 91.2608C323.977 96.4678 340.147 108.038 352.185 124.741L352.25 124.881L352.923 125.807C353.128 126.127 353.333 126.414 353.554 126.734C353.627 126.824 353.688 126.923 353.735 127.029C355.58 129.711 357.343 132.597 359.007 135.623C359.47 136.481 360.156 137.199 360.993 137.698C361.831 138.198 362.788 138.461 363.763 138.46C364.519 138.461 365.266 138.299 365.953 137.984L366.158 137.919C366.796 137.602 367.366 137.162 367.835 136.624C368.303 136.087 368.661 135.462 368.888 134.786C369.133 134.088 369.227 133.345 369.165 132.608C369.103 131.87 368.886 131.154 368.527 130.506C366.695 127.123 364.686 123.838 362.509 120.666L362.328 120.395C362.199 120.184 362.057 119.982 361.902 119.789C361.722 119.55 361.57 119.292 361.451 119.018C348.692 94.5572 356.76 73.7866 367.584 63.4136C368.806 62.2391 370.102 61.1435 371.463 60.1336C376.958 56.1014 383.516 53.7719 390.323 53.4342C390.774 53.4342 391.225 53.4342 391.676 53.4342C398.646 53.4342 405.542 55.5744 412.176 59.7892C435.603 74.7624 428.297 94.672 419.818 117.755C413.75 134.212 406.879 152.884 413.258 169.932C419.818 187.316 435.669 190.784 442.951 191.44L442.795 184.88C442.792 183.73 442.414 182.613 441.718 181.697C441.023 180.781 440.048 180.116 438.941 179.804C433.644 178.337 426.641 174.802 423.361 166.143C418.441 152.794 424.033 137.599 429.97 121.502L430.126 121.051C432.586 114.286 435.152 107.316 436.825 100.215C436.996 99.4726 437.413 98.8098 438.009 98.3347C438.604 97.8597 439.343 97.6005 440.105 97.5994H440.351C470.797 99.9611 499.235 113.71 519.995 136.105C540.755 158.501 552.312 187.897 552.363 218.435C552.366 239.273 544.113 259.263 529.411 274.031V274.031ZM291.669 333.759C290.923 333.194 290.201 332.636 289.504 332.046C288.807 331.455 288.036 330.873 287.339 330.266C286.257 329.34 285.174 328.397 284.141 327.429C283.168 326.543 281.899 326.052 280.582 326.051C279.24 326.044 277.943 326.542 276.95 327.445L276.86 327.536C276.316 328.044 275.883 328.658 275.589 329.341C275.294 330.024 275.143 330.761 275.146 331.504C275.141 332.244 275.294 332.975 275.594 333.651C275.893 334.327 276.333 334.931 276.884 335.424C277.876 336.351 278.893 337.253 279.902 338.105L280.107 338.31C281.124 339.13 282.157 340.024 283.198 340.861C284.395 341.804 285.584 342.73 286.782 343.608C287.798 344.378 288.832 345.092 289.873 345.813L293.342 338.433C293.743 337.587 294.356 336.858 295.121 336.318C293.948 335.465 292.792 334.637 291.669 333.759Z" fill="#404040"/>
<path d="M417.465 414.431L224.683 591.551C223.708 592.451 222.445 592.976 221.12 593.033C219.794 593.09 218.491 592.675 217.442 591.863C216.391 591.059 215.658 589.91 215.37 588.619C215.082 587.328 215.258 585.976 215.868 584.802L277.966 465.501H242.518C241.569 465.502 240.636 465.263 239.804 464.806C238.972 464.349 238.27 463.69 237.762 462.888C237.254 462.087 236.956 461.171 236.898 460.224C236.839 459.277 237.02 458.331 237.426 457.473L258.688 412.201C262.037 412.738 265.423 413.012 268.815 413.021C269.471 413.021 270.144 413.021 270.8 413.021L251.407 454.283H287.257C288.226 454.285 289.178 454.537 290.021 455.013C290.865 455.49 291.571 456.175 292.074 457.003C292.576 457.832 292.857 458.775 292.889 459.744C292.922 460.712 292.705 461.672 292.259 462.532L240.689 561.531L399.179 415.915H352.48C351.431 415.918 350.403 415.629 349.51 415.08C348.616 414.531 347.894 413.744 347.423 412.808C346.952 411.871 346.751 410.821 346.844 409.777C346.936 408.733 347.317 407.735 347.945 406.895L375.366 369.7C378.477 369.274 381.565 368.727 384.632 368.06C387.092 367.543 389.503 366.937 391.889 366.256L363.64 404.657H413.66C414.795 404.656 415.903 404.998 416.84 405.638C417.777 406.279 418.499 407.187 418.911 408.244C419.323 409.301 419.407 410.459 419.15 411.564C418.893 412.67 418.309 413.672 417.473 414.439L417.465 414.431Z" fill="#404040"/>
</g>
<defs>
<clipPath id="clip0">
<rect width="600" height="600" fill="white"/>
</clipPath>
</defs>
</svg>
